<svg width="241" height="48" viewBox="0 0 241 48" fill="none" xmlns="http://www.w3.org/2000/svg">
<path d="M0 8C0 3.58172 3.58172 0 8 0H233C237.418 0 241 3.58172 241 8V40C241 44.4183 237.418 48 233 48H8C3.58172 48 0 44.4183 0 40V8Z" fill="#FD377E"/>
<path d="M100.034 17.8636V29.5H98.2784V17.8636H100.034ZM104.153 24.3182V29.5H102.455V20.7727H104.085V22.1932H104.193C104.394 21.7311 104.708 21.3598 105.136 21.0795C105.568 20.7992 106.112 20.6591 106.767 20.6591C107.362 20.6591 107.883 20.7841 108.33 21.0341C108.777 21.2803 109.123 21.6477 109.369 22.1364C109.616 22.625 109.739 23.2292 109.739 23.9489V29.5H108.04V24.1534C108.04 23.5208 107.875 23.0265 107.545 22.6705C107.216 22.3106 106.763 22.1307 106.188 22.1307C105.794 22.1307 105.443 22.2159 105.136 22.3864C104.833 22.5568 104.593 22.8068 104.415 23.1364C104.241 23.4621 104.153 23.8561 104.153 24.3182ZM112.017 29.5V20.7727H113.716V29.5H112.017ZM112.875 19.4261C112.58 19.4261 112.326 19.3277 112.114 19.1307C111.905 18.9299 111.801 18.6913 111.801 18.4148C111.801 18.1345 111.905 17.8958 112.114 17.6989C112.326 17.4981 112.58 17.3977 112.875 17.3977C113.17 17.3977 113.422 17.4981 113.631 17.6989C113.843 17.8958 113.949 18.1345 113.949 18.4148C113.949 18.6913 113.843 18.9299 113.631 19.1307C113.422 19.3277 113.17 19.4261 112.875 19.4261ZM119.678 29.6761C118.833 29.6761 118.106 29.4848 117.496 29.1023C116.89 28.7159 116.424 28.1837 116.098 27.5057C115.772 26.8277 115.609 26.0511 115.609 25.1761C115.609 24.2898 115.776 23.5076 116.109 22.8295C116.443 22.1477 116.912 21.6155 117.518 21.233C118.125 20.8504 118.839 20.6591 119.661 20.6591C120.323 20.6591 120.914 20.7822 121.433 21.0284C121.952 21.2708 122.371 21.6117 122.689 22.0511C123.011 22.4905 123.202 23.0038 123.263 23.5909H121.609C121.518 23.1818 121.31 22.8295 120.984 22.5341C120.662 22.2386 120.231 22.0909 119.689 22.0909C119.215 22.0909 118.801 22.2159 118.445 22.4659C118.092 22.7121 117.818 23.0644 117.621 23.5227C117.424 23.9773 117.325 24.5152 117.325 25.1364C117.325 25.7727 117.422 26.322 117.615 26.7841C117.808 27.2462 118.081 27.6042 118.433 27.858C118.789 28.1117 119.208 28.2386 119.689 28.2386C120.011 28.2386 120.303 28.1799 120.564 28.0625C120.829 27.9413 121.051 27.7689 121.229 27.5455C121.411 27.322 121.537 27.053 121.609 26.7386H123.263C123.202 27.303 123.018 27.8068 122.712 28.25C122.405 28.6932 121.994 29.0417 121.479 29.2955C120.967 29.5492 120.367 29.6761 119.678 29.6761ZM125.08 29.5V20.7727H126.778V29.5H125.08ZM125.938 19.4261C125.642 19.4261 125.388 19.3277 125.176 19.1307C124.968 18.9299 124.864 18.6913 124.864 18.4148C124.864 18.1345 124.968 17.8958 125.176 17.6989C125.388 17.4981 125.642 17.3977 125.938 17.3977C126.233 17.3977 126.485 17.4981 126.693 17.6989C126.905 17.8958 127.011 18.1345 127.011 18.4148C127.011 18.6913 126.905 18.9299 126.693 19.1307C126.485 19.3277 126.233 19.4261 125.938 19.4261ZM131.604 29.6932C131.051 29.6932 130.551 29.5909 130.104 29.3864C129.657 29.178 129.303 28.8769 129.041 28.483C128.784 28.089 128.655 27.6061 128.655 27.0341C128.655 26.5417 128.75 26.1364 128.939 25.8182C129.128 25.5 129.384 25.2481 129.706 25.0625C130.028 24.8769 130.388 24.7367 130.786 24.642C131.183 24.5473 131.589 24.4754 132.001 24.4261C132.524 24.3655 132.948 24.3163 133.274 24.2784C133.6 24.2367 133.837 24.1705 133.984 24.0795C134.132 23.9886 134.206 23.8409 134.206 23.6364V23.5966C134.206 23.1004 134.066 22.7159 133.786 22.4432C133.509 22.1705 133.096 22.0341 132.547 22.0341C131.975 22.0341 131.524 22.161 131.195 22.4148C130.869 22.6648 130.643 22.9432 130.518 23.25L128.922 22.8864C129.111 22.3561 129.388 21.928 129.751 21.6023C130.119 21.2727 130.541 21.0341 131.018 20.8864C131.496 20.7348 131.998 20.6591 132.524 20.6591C132.873 20.6591 133.242 20.7008 133.632 20.7841C134.026 20.8636 134.393 21.0114 134.734 21.2273C135.079 21.4432 135.361 21.7519 135.581 22.1534C135.801 22.5511 135.911 23.0682 135.911 23.7045V29.5H134.251V28.3068H134.183C134.073 28.5265 133.909 28.7424 133.689 28.9545C133.469 29.1667 133.187 29.3428 132.842 29.483C132.498 29.6231 132.085 29.6932 131.604 29.6932ZM131.973 28.3295C132.443 28.3295 132.844 28.2367 133.178 28.0511C133.515 27.8655 133.77 27.6231 133.945 27.3239C134.123 27.0208 134.212 26.697 134.212 26.3523V25.2273C134.151 25.2879 134.034 25.3447 133.859 25.3977C133.689 25.447 133.494 25.4905 133.274 25.5284C133.054 25.5625 132.84 25.5947 132.632 25.625C132.424 25.6515 132.25 25.6742 132.109 25.6932C131.78 25.7348 131.479 25.8049 131.206 25.9034C130.937 26.0019 130.721 26.1439 130.558 26.3295C130.399 26.5114 130.32 26.7538 130.32 27.0568C130.32 27.4773 130.475 27.7955 130.786 28.0114C131.096 28.2235 131.492 28.3295 131.973 28.3295ZM138.173 29.5V20.7727H139.815V22.1591H139.906C140.065 21.6894 140.346 21.3201 140.747 21.0511C141.152 20.7784 141.611 20.642 142.122 20.642C142.228 20.642 142.353 20.6458 142.497 20.6534C142.645 20.661 142.76 20.6705 142.844 20.6818V22.3068C142.776 22.2879 142.654 22.267 142.48 22.2443C142.306 22.2178 142.132 22.2045 141.957 22.2045C141.556 22.2045 141.198 22.2898 140.884 22.4602C140.573 22.6269 140.327 22.8598 140.145 23.1591C139.963 23.4545 139.872 23.7917 139.872 24.1705V29.5H138.173Z" fill="white"/>
<path d="M8 2H233V-2H8V2ZM239 8V40H243V8H239ZM233 46H8V50H233V46ZM2 40V8H-2V40H2ZM8 46C4.68629 46 2 43.3137 2 40H-2C-2 45.5228 2.47715 50 8 50V46ZM239 40C239 43.3137 236.314 46 233 46V50C238.523 50 243 45.5228 243 40H239ZM233 2C236.314 2 239 4.68629 239 8H243C243 2.47715 238.523 -2 233 -2V2ZM8 -2C2.47715 -2 -2 2.47715 -2 8H2C2 4.68629 4.68629 2 8 2V-2Z" fill="#FD377E"/>
</svg>
