<svg width="314" height="132" viewBox="0 0 314 132" fill="none" xmlns="http://www.w3.org/2000/svg">
<path d="M15.694 28.418C12.806 28.418 10.336 27.848 8.284 26.708C6.232 25.568 4.64867 23.972 3.534 21.92C2.44467 19.8427 1.9 17.398 1.9 14.586C1.9 11.7993 2.44467 9.38 3.534 7.328C4.64867 5.25067 6.232 3.642 8.284 2.502C10.336 1.362 12.806 0.791999 15.694 0.791999C16.9607 0.791999 18.24 0.956666 19.532 1.286C20.8493 1.61533 21.9893 2.05866 22.952 2.616C23.7373 3.072 24.2187 3.642 24.396 4.326C24.5733 5.01 24.51 5.656 24.206 6.264C23.9273 6.872 23.484 7.30267 22.876 7.556C22.268 7.80933 21.584 7.72067 20.824 7.29C20.064 6.834 19.266 6.50467 18.43 6.302C17.594 6.09933 16.7453 5.998 15.884 5.998C13.3253 5.998 11.3873 6.74533 10.07 8.24C8.778 9.70933 8.132 11.8247 8.132 14.586C8.132 17.3473 8.778 19.4753 10.07 20.97C11.3873 22.4647 13.3253 23.212 15.884 23.212C16.6947 23.212 17.518 23.1107 18.354 22.908C19.2153 22.7053 20.0387 22.3887 20.824 21.958C21.6347 21.5273 22.344 21.4387 22.952 21.692C23.56 21.92 24.0033 22.3253 24.282 22.908C24.586 23.4653 24.662 24.086 24.51 24.77C24.358 25.4287 23.9273 25.9733 23.218 26.404C22.2553 27.0373 21.09 27.5313 19.722 27.886C18.3793 28.2407 17.0367 28.418 15.694 28.418ZM36.5346 28.418C34.3306 28.418 32.4306 28.0253 30.8346 27.24C29.264 26.4293 28.048 25.302 27.1866 23.858C26.3506 22.3887 25.9326 20.666 25.9326 18.69C25.9326 16.7647 26.338 15.08 27.1486 13.636C27.9846 12.1667 29.112 11.0267 30.5306 10.216C31.9746 9.38 33.634 8.962 35.5086 8.962C38.2193 8.962 40.3726 9.82333 41.9686 11.546C43.5646 13.2433 44.3626 15.5487 44.3626 18.462C44.3626 19.4247 43.7673 19.906 42.5766 19.906H31.4046C31.6073 21.3753 32.1393 22.452 33.0006 23.136C33.8873 23.7947 35.1033 24.124 36.6486 24.124C37.2566 24.124 37.9406 24.0607 38.7006 23.934C39.486 23.782 40.2333 23.5287 40.9426 23.174C41.6773 22.8193 42.298 22.756 42.8046 22.984C43.3113 23.1867 43.6533 23.5413 43.8306 24.048C44.0333 24.5547 44.0333 25.0867 43.8306 25.644C43.6533 26.176 43.2353 26.6193 42.5766 26.974C41.69 27.4553 40.702 27.81 39.6126 28.038C38.5486 28.2913 37.5226 28.418 36.5346 28.418ZM35.7366 12.762C34.5206 12.762 33.5326 13.1293 32.7726 13.864C32.038 14.5987 31.582 15.6247 31.4046 16.942H39.6126C39.4606 14.1553 38.1686 12.762 35.7366 12.762ZM50.5881 28.342C48.6628 28.342 47.7001 27.3667 47.7001 25.416V11.926C47.7001 10.0007 48.6374 9.038 50.5121 9.038C52.3868 9.038 53.3241 10.0007 53.3241 11.926V12.078C53.9574 11.0647 54.8061 10.292 55.8701 9.76C56.9341 9.228 58.1248 8.962 59.4421 8.962C61.6461 8.962 63.2928 9.608 64.3821 10.9C65.4714 12.1667 66.0161 14.13 66.0161 16.79V25.416C66.0161 27.3667 65.0534 28.342 63.1281 28.342C62.2161 28.342 61.5068 28.0887 61.0001 27.582C60.5188 27.0753 60.2781 26.3533 60.2781 25.416V17.056C60.2781 15.764 60.0374 14.8393 59.5561 14.282C59.0748 13.6993 58.3654 13.408 57.4281 13.408C56.2121 13.408 55.2368 13.788 54.5021 14.548C53.7928 15.308 53.4381 16.3213 53.4381 17.588V25.416C53.4381 27.3667 52.4881 28.342 50.5881 28.342ZM79.4577 28.418C74.2137 28.418 71.5917 25.872 71.5917 20.78V13.636H69.9957C68.501 13.636 67.7537 12.9267 67.7537 11.508C67.7537 10.064 68.501 9.342 69.9957 9.342H71.5917V6.454C71.5917 4.50333 72.5544 3.528 74.4797 3.528C76.3797 3.528 77.3297 4.50333 77.3297 6.454V9.342H80.9397C82.409 9.342 83.1437 10.064 83.1437 11.508C83.1437 12.9267 82.409 13.636 80.9397 13.636H77.3297V20.552C77.3297 21.616 77.5704 22.414 78.0517 22.946C78.5584 23.478 79.3564 23.744 80.4457 23.744C80.8257 23.744 81.1804 23.706 81.5097 23.63C81.839 23.554 82.143 23.5033 82.4217 23.478C82.7764 23.4527 83.0677 23.5667 83.2957 23.82C83.5237 24.0733 83.6377 24.5927 83.6377 25.378C83.6377 26.0113 83.5364 26.556 83.3337 27.012C83.131 27.4427 82.7764 27.7593 82.2697 27.962C81.9404 28.0887 81.4844 28.19 80.9017 28.266C80.3444 28.3673 79.863 28.418 79.4577 28.418ZM88.627 28.342C86.651 28.342 85.663 27.3667 85.663 25.416V11.926C85.663 10.0007 86.6003 9.038 88.475 9.038C90.3497 9.038 91.287 10.0007 91.287 11.926V12.61C92.199 10.3553 94.0863 9.13933 96.949 8.962C97.5823 8.91133 98.0637 9.076 98.393 9.456C98.7477 9.81067 98.9377 10.406 98.963 11.242C99.0137 12.0273 98.849 12.648 98.469 13.104C98.1143 13.56 97.5063 13.8387 96.645 13.94L95.771 14.016C92.9337 14.2947 91.515 15.7387 91.515 18.348V25.416C91.515 27.3667 90.5523 28.342 88.627 28.342ZM107.446 28.418C106.052 28.418 104.824 28.152 103.76 27.62C102.696 27.088 101.847 26.366 101.214 25.454C100.606 24.542 100.302 23.516 100.302 22.376C100.302 21.0333 100.656 19.9567 101.366 19.146C102.075 18.3353 103.228 17.7653 104.824 17.436C106.42 17.0813 108.535 16.904 111.17 16.904H112.538V16.258C112.538 15.1433 112.284 14.358 111.778 13.902C111.271 13.4207 110.41 13.18 109.194 13.18C108.51 13.18 107.762 13.2687 106.952 13.446C106.141 13.598 105.267 13.864 104.33 14.244C103.62 14.548 103.025 14.5733 102.544 14.32C102.062 14.0413 101.746 13.636 101.594 13.104C101.442 12.5467 101.48 11.9893 101.708 11.432C101.961 10.8747 102.442 10.4693 103.152 10.216C104.342 9.76 105.457 9.44333 106.496 9.266C107.56 9.06333 108.535 8.962 109.422 8.962C112.31 8.962 114.463 9.62067 115.882 10.938C117.3 12.23 118.01 14.244 118.01 16.98V25.416C118.01 27.3667 117.123 28.342 115.35 28.342C113.551 28.342 112.652 27.3667 112.652 25.416V25.188C112.272 26.176 111.626 26.9613 110.714 27.544C109.827 28.1267 108.738 28.418 107.446 28.418ZM108.738 24.58C109.802 24.58 110.701 24.2127 111.436 23.478C112.17 22.7433 112.538 21.7933 112.538 20.628V19.868H111.208C109.257 19.868 107.876 20.0453 107.066 20.4C106.255 20.7293 105.85 21.312 105.85 22.148C105.85 22.8573 106.09 23.44 106.572 23.896C107.078 24.352 107.8 24.58 108.738 24.58ZM129.016 28.418C124.532 28.418 122.29 25.9227 122.29 20.932V3.794C122.29 1.84333 123.253 0.867998 125.178 0.867998C127.078 0.867998 128.028 1.84333 128.028 3.794V20.704C128.028 21.7427 128.243 22.5153 128.674 23.022C129.13 23.5033 129.725 23.744 130.46 23.744C130.663 23.744 130.853 23.7313 131.03 23.706C131.233 23.6807 131.423 23.668 131.6 23.668C132.005 23.6427 132.284 23.7693 132.436 24.048C132.613 24.3267 132.702 24.8967 132.702 25.758C132.702 27.2273 132.081 28.0633 130.84 28.266C130.587 28.2913 130.295 28.3167 129.966 28.342C129.637 28.3927 129.32 28.418 129.016 28.418ZM137.832 5.922C136.768 5.922 135.945 5.68133 135.362 5.2C134.805 4.69333 134.526 3.984 134.526 3.072C134.526 2.13467 134.805 1.42533 135.362 0.944C135.945 0.437332 136.768 0.183998 137.832 0.183998C140.011 0.183998 141.1 1.14667 141.1 3.072C141.1 4.972 140.011 5.922 137.832 5.922ZM137.832 28.304C136.895 28.304 136.173 28.038 135.666 27.506C135.185 26.9487 134.944 26.176 134.944 25.188V12.192C134.944 10.0893 135.907 9.038 137.832 9.038C138.744 9.038 139.441 9.31667 139.922 9.874C140.429 10.406 140.682 11.1787 140.682 12.192V25.188C140.682 26.176 140.442 26.9487 139.96 27.506C139.479 28.038 138.77 28.304 137.832 28.304ZM146.708 28C145.948 28 145.366 27.7593 144.96 27.278C144.58 26.7713 144.416 26.1633 144.466 25.454C144.517 24.7447 144.834 24.086 145.416 23.478L153.624 13.636H146.48C145.036 13.636 144.314 12.9267 144.314 11.508C144.314 10.064 145.036 9.342 146.48 9.342H157.462C158.349 9.342 159.008 9.59533 159.438 10.102C159.894 10.5833 160.097 11.1787 160.046 11.888C159.996 12.572 159.692 13.218 159.134 13.826L150.85 23.744H158.412C159.856 23.744 160.578 24.4533 160.578 25.872C160.578 27.2907 159.856 28 158.412 28H146.708ZM172.689 28.418C170.485 28.418 168.585 28.0253 166.989 27.24C165.418 26.4293 164.202 25.302 163.341 23.858C162.505 22.3887 162.087 20.666 162.087 18.69C162.087 16.7647 162.492 15.08 163.303 13.636C164.139 12.1667 165.266 11.0267 166.685 10.216C168.129 9.38 169.788 8.962 171.663 8.962C174.374 8.962 176.527 9.82333 178.123 11.546C179.719 13.2433 180.517 15.5487 180.517 18.462C180.517 19.4247 179.922 19.906 178.731 19.906H167.559C167.762 21.3753 168.294 22.452 169.155 23.136C170.042 23.7947 171.258 24.124 172.803 24.124C173.411 24.124 174.095 24.0607 174.855 23.934C175.64 23.782 176.388 23.5287 177.097 23.174C177.832 22.8193 178.452 22.756 178.959 22.984C179.466 23.1867 179.808 23.5413 179.985 24.048C180.188 24.5547 180.188 25.0867 179.985 25.644C179.808 26.176 179.39 26.6193 178.731 26.974C177.844 27.4553 176.856 27.81 175.767 28.038C174.703 28.2913 173.677 28.418 172.689 28.418ZM171.891 12.762C170.675 12.762 169.687 13.1293 168.927 13.864C168.192 14.5987 167.736 15.6247 167.559 16.942H175.767C175.615 14.1553 174.323 12.762 171.891 12.762ZM203.436 28.418C201.434 28.418 199.686 28.0253 198.192 27.24C196.722 26.4293 195.582 25.302 194.772 23.858C193.961 22.3887 193.556 20.6533 193.556 18.652C193.556 16.676 193.961 14.966 194.772 13.522C195.582 12.0527 196.722 10.9253 198.192 10.14C199.686 9.35467 201.434 8.962 203.436 8.962C205.437 8.962 207.172 9.35467 208.642 10.14C210.136 10.9253 211.289 12.0527 212.1 13.522C212.936 14.966 213.354 16.676 213.354 18.652C213.354 20.6533 212.936 22.3887 212.1 23.858C211.289 25.302 210.136 26.4293 208.642 27.24C207.172 28.0253 205.437 28.418 203.436 28.418ZM203.436 24.124C204.652 24.124 205.64 23.6807 206.4 22.794C207.185 21.9073 207.578 20.5267 207.578 18.652C207.578 16.8027 207.185 15.4473 206.4 14.586C205.64 13.6993 204.652 13.256 203.436 13.256C202.22 13.256 201.232 13.6993 200.472 14.586C199.712 15.4473 199.332 16.8027 199.332 18.652C199.332 20.5267 199.712 21.9073 200.472 22.794C201.232 23.6807 202.22 24.124 203.436 24.124ZM11.286 76.418C9.25933 76.418 7.486 76.0253 5.966 75.24C4.47133 74.4293 3.31867 73.2893 2.508 71.82C1.69733 70.3507 1.292 68.6153 1.292 66.614C1.292 64.6127 1.69733 62.89 2.508 61.446C3.31867 60.002 4.47133 58.9 5.966 58.14C7.486 57.3547 9.25933 56.962 11.286 56.962C12.0713 56.962 12.9073 57.0633 13.794 57.266C14.706 57.4433 15.58 57.76 16.416 58.216C17.0493 58.52 17.442 58.9507 17.594 59.508C17.746 60.04 17.708 60.572 17.48 61.104C17.2773 61.636 16.9353 62.0287 16.454 62.282C15.998 62.51 15.4533 62.4593 14.82 62.13C13.8067 61.598 12.8187 61.332 11.856 61.332C10.3613 61.332 9.196 61.8007 8.36 62.738C7.54933 63.65 7.144 64.9547 7.144 66.652C7.144 68.324 7.54933 69.6413 8.36 70.604C9.196 71.5413 10.3613 72.01 11.856 72.01C12.312 72.01 12.7933 71.9593 13.3 71.858C13.8067 71.7313 14.3133 71.5287 14.82 71.25C15.4533 70.9207 15.998 70.8827 16.454 71.136C16.9353 71.3893 17.2647 71.782 17.442 72.314C17.6193 72.8207 17.632 73.3527 17.48 73.91C17.328 74.4673 16.948 74.898 16.34 75.202C15.4787 75.6327 14.6173 75.9367 13.756 76.114C12.8947 76.3167 12.0713 76.418 11.286 76.418ZM28.9474 76.418C26.9461 76.418 25.1981 76.0253 23.7034 75.24C22.2341 74.4293 21.0941 73.302 20.2834 71.858C19.4727 70.3887 19.0674 68.6533 19.0674 66.652C19.0674 64.676 19.4727 62.966 20.2834 61.522C21.0941 60.0527 22.2341 58.9253 23.7034 58.14C25.1981 57.3547 26.9461 56.962 28.9474 56.962C30.9487 56.962 32.6841 57.3547 34.1534 58.14C35.6481 58.9253 36.8007 60.0527 37.6114 61.522C38.4474 62.966 38.8654 64.676 38.8654 66.652C38.8654 68.6533 38.4474 70.3887 37.6114 71.858C36.8007 73.302 35.6481 74.4293 34.1534 75.24C32.6841 76.0253 30.9487 76.418 28.9474 76.418ZM28.9474 72.124C30.1634 72.124 31.1514 71.6807 31.9114 70.794C32.6967 69.9073 33.0894 68.5267 33.0894 66.652C33.0894 64.8027 32.6967 63.4473 31.9114 62.586C31.1514 61.6993 30.1634 61.256 28.9474 61.256C27.7314 61.256 26.7434 61.6993 25.9834 62.586C25.2234 63.4473 24.8434 64.8027 24.8434 66.652C24.8434 68.5267 25.2234 69.9073 25.9834 70.794C26.7434 71.6807 27.7314 72.124 28.9474 72.124ZM45.2443 76.342C43.319 76.342 42.3563 75.3667 42.3563 73.416V59.926C42.3563 58.0007 43.2937 57.038 45.1683 57.038C47.043 57.038 47.9803 58.0007 47.9803 59.926V60.078C48.6137 59.0647 49.4623 58.292 50.5263 57.76C51.5903 57.228 52.781 56.962 54.0983 56.962C56.3023 56.962 57.949 57.608 59.0383 58.9C60.1277 60.1667 60.6723 62.13 60.6723 64.79V73.416C60.6723 75.3667 59.7097 76.342 57.7843 76.342C56.8723 76.342 56.163 76.0887 55.6563 75.582C55.175 75.0753 54.9343 74.3533 54.9343 73.416V65.056C54.9343 63.764 54.6937 62.8393 54.2123 62.282C53.731 61.6993 53.0217 61.408 52.0843 61.408C50.8683 61.408 49.893 61.788 49.1583 62.548C48.449 63.308 48.0943 64.3213 48.0943 65.588V73.416C48.0943 75.3667 47.1443 76.342 45.2443 76.342ZM74.114 76.418C68.87 76.418 66.248 73.872 66.248 68.78V61.636H64.652C63.1573 61.636 62.41 60.9267 62.41 59.508C62.41 58.064 63.1573 57.342 64.652 57.342H66.248V54.454C66.248 52.5033 67.2106 51.528 69.136 51.528C71.036 51.528 71.986 52.5033 71.986 54.454V57.342H75.596C77.0653 57.342 77.8 58.064 77.8 59.508C77.8 60.9267 77.0653 61.636 75.596 61.636H71.986V68.552C71.986 69.616 72.2266 70.414 72.708 70.946C73.2146 71.478 74.0126 71.744 75.102 71.744C75.482 71.744 75.8366 71.706 76.166 71.63C76.4953 71.554 76.7993 71.5033 77.078 71.478C77.4326 71.4527 77.724 71.5667 77.952 71.82C78.18 72.0733 78.294 72.5927 78.294 73.378C78.294 74.0113 78.1926 74.556 77.99 75.012C77.7873 75.4427 77.4326 75.7593 76.926 75.962C76.5966 76.0887 76.1406 76.19 75.558 76.266C75.0006 76.3673 74.5193 76.418 74.114 76.418ZM83.2832 76.342C81.3072 76.342 80.3192 75.3667 80.3192 73.416V59.926C80.3192 58.0007 81.2566 57.038 83.1312 57.038C85.0059 57.038 85.9432 58.0007 85.9432 59.926V60.61C86.8552 58.3553 88.7426 57.1393 91.6052 56.962C92.2386 56.9113 92.7199 57.076 93.0492 57.456C93.4039 57.8107 93.5939 58.406 93.6192 59.242C93.6699 60.0273 93.5052 60.648 93.1252 61.104C92.7706 61.56 92.1626 61.8387 91.3012 61.94L90.4272 62.016C87.5899 62.2947 86.1712 63.7387 86.1712 66.348V73.416C86.1712 75.3667 85.2086 76.342 83.2832 76.342ZM104.613 76.418C102.612 76.418 100.864 76.0253 99.3694 75.24C97.9001 74.4293 96.7601 73.302 95.9494 71.858C95.1387 70.3887 94.7334 68.6533 94.7334 66.652C94.7334 64.676 95.1387 62.966 95.9494 61.522C96.7601 60.0527 97.9001 58.9253 99.3694 58.14C100.864 57.3547 102.612 56.962 104.613 56.962C106.615 56.962 108.35 57.3547 109.819 58.14C111.314 58.9253 112.467 60.0527 113.277 61.522C114.113 62.966 114.531 64.676 114.531 66.652C114.531 68.6533 114.113 70.3887 113.277 71.858C112.467 73.302 111.314 74.4293 109.819 75.24C108.35 76.0253 106.615 76.418 104.613 76.418ZM104.613 72.124C105.829 72.124 106.817 71.6807 107.577 70.794C108.363 69.9073 108.755 68.5267 108.755 66.652C108.755 64.8027 108.363 63.4473 107.577 62.586C106.817 61.6993 105.829 61.256 104.613 61.256C103.397 61.256 102.409 61.6993 101.649 62.586C100.889 63.4473 100.509 64.8027 100.509 66.652C100.509 68.5267 100.889 69.9073 101.649 70.794C102.409 71.6807 103.397 72.124 104.613 72.124ZM124.748 76.418C120.264 76.418 118.022 73.9227 118.022 68.932V51.794C118.022 49.8433 118.985 48.868 120.91 48.868C122.81 48.868 123.76 49.8433 123.76 51.794V68.704C123.76 69.7427 123.976 70.5153 124.406 71.022C124.862 71.5033 125.458 71.744 126.192 71.744C126.395 71.744 126.585 71.7313 126.762 71.706C126.965 71.6807 127.155 71.668 127.332 71.668C127.738 71.6427 128.016 71.7693 128.168 72.048C128.346 72.3267 128.434 72.8967 128.434 73.758C128.434 75.2273 127.814 76.0633 126.572 76.266C126.319 76.2913 126.028 76.3167 125.698 76.342C125.369 76.3927 125.052 76.418 124.748 76.418ZM140.181 76.418C137.977 76.418 136.077 76.0253 134.481 75.24C132.91 74.4293 131.694 73.302 130.833 71.858C129.997 70.3887 129.579 68.666 129.579 66.69C129.579 64.7647 129.984 63.08 130.795 61.636C131.631 60.1667 132.758 59.0267 134.177 58.216C135.621 57.38 137.28 56.962 139.155 56.962C141.866 56.962 144.019 57.8233 145.615 59.546C147.211 61.2433 148.009 63.5487 148.009 66.462C148.009 67.4247 147.414 67.906 146.223 67.906H135.051C135.254 69.3753 135.786 70.452 136.647 71.136C137.534 71.7947 138.75 72.124 140.295 72.124C140.903 72.124 141.587 72.0607 142.347 71.934C143.132 71.782 143.88 71.5287 144.589 71.174C145.324 70.8193 145.944 70.756 146.451 70.984C146.958 71.1867 147.3 71.5413 147.477 72.048C147.68 72.5547 147.68 73.0867 147.477 73.644C147.3 74.176 146.882 74.6193 146.223 74.974C145.336 75.4553 144.348 75.81 143.259 76.038C142.195 76.2913 141.169 76.418 140.181 76.418ZM139.383 60.762C138.167 60.762 137.179 61.1293 136.419 61.864C135.684 62.5987 135.228 63.6247 135.051 64.942H143.259C143.107 62.1553 141.815 60.762 139.383 60.762ZM169.218 76.418C167.597 76.418 166.165 76.0253 164.924 75.24C163.708 74.4293 162.758 73.302 162.074 71.858C161.39 70.3887 161.048 68.6533 161.048 66.652C161.048 64.6507 161.39 62.928 162.074 61.484C162.758 60.04 163.708 58.9253 164.924 58.14C166.165 57.3547 167.597 56.962 169.218 56.962C170.459 56.962 171.599 57.228 172.638 57.76C173.677 58.292 174.462 59.0013 174.994 59.888V51.794C174.994 49.8433 175.944 48.868 177.844 48.868C179.769 48.868 180.732 49.8433 180.732 51.794V73.416C180.732 75.3667 179.782 76.342 177.882 76.342C175.982 76.342 175.032 75.3667 175.032 73.416V73.302C174.525 74.2647 173.74 75.0247 172.676 75.582C171.637 76.1393 170.485 76.418 169.218 76.418ZM170.928 72.124C172.144 72.124 173.132 71.6807 173.892 70.794C174.677 69.9073 175.07 68.5267 175.07 66.652C175.07 64.8027 174.677 63.4473 173.892 62.586C173.132 61.6993 172.144 61.256 170.928 61.256C169.712 61.256 168.724 61.6993 167.964 62.586C167.204 63.4473 166.824 64.8027 166.824 66.652C166.824 68.5267 167.204 69.9073 167.964 70.794C168.724 71.6807 169.712 72.124 170.928 72.124ZM191.461 76.418C190.068 76.418 188.839 76.152 187.775 75.62C186.711 75.088 185.863 74.366 185.229 73.454C184.621 72.542 184.317 71.516 184.317 70.376C184.317 69.0333 184.672 67.9567 185.381 67.146C186.091 66.3353 187.243 65.7653 188.839 65.436C190.435 65.0813 192.551 64.904 195.185 64.904H196.553V64.258C196.553 63.1433 196.3 62.358 195.793 61.902C195.287 61.4207 194.425 61.18 193.209 61.18C192.525 61.18 191.778 61.2687 190.967 61.446C190.157 61.598 189.283 61.864 188.345 62.244C187.636 62.548 187.041 62.5733 186.559 62.32C186.078 62.0413 185.761 61.636 185.609 61.104C185.457 60.5467 185.495 59.9893 185.723 59.432C185.977 58.8747 186.458 58.4693 187.167 58.216C188.358 57.76 189.473 57.4433 190.511 57.266C191.575 57.0633 192.551 56.962 193.437 56.962C196.325 56.962 198.479 57.6207 199.897 58.938C201.316 60.23 202.025 62.244 202.025 64.98V73.416C202.025 75.3667 201.139 76.342 199.365 76.342C197.567 76.342 196.667 75.3667 196.667 73.416V73.188C196.287 74.176 195.641 74.9613 194.729 75.544C193.843 76.1267 192.753 76.418 191.461 76.418ZM192.753 72.58C193.817 72.58 194.717 72.2127 195.451 71.478C196.186 70.7433 196.553 69.7933 196.553 68.628V67.868H195.223C193.273 67.868 191.892 68.0453 191.081 68.4C190.271 68.7293 189.865 69.312 189.865 70.148C189.865 70.8573 190.106 71.44 190.587 71.896C191.094 72.352 191.816 72.58 192.753 72.58ZM213.45 76.418C212.335 76.418 211.182 76.3167 209.992 76.114C208.826 75.9113 207.762 75.5693 206.8 75.088C206.166 74.7587 205.748 74.3407 205.546 73.834C205.368 73.3273 205.368 72.8333 205.546 72.352C205.723 71.8707 206.04 71.516 206.496 71.288C206.952 71.0347 207.484 71.0347 208.092 71.288C209.13 71.7187 210.08 72.0227 210.942 72.2C211.828 72.3773 212.677 72.466 213.488 72.466C214.552 72.466 215.337 72.3013 215.844 71.972C216.35 71.6173 216.604 71.1613 216.604 70.604C216.604 69.7173 215.958 69.16 214.666 68.932L210.676 68.21C209.08 67.9313 207.864 67.3613 207.028 66.5C206.192 65.6387 205.774 64.5113 205.774 63.118C205.774 61.8513 206.128 60.762 206.838 59.85C207.547 58.938 208.522 58.2287 209.764 57.722C211.005 57.2153 212.436 56.962 214.058 56.962C216.287 56.962 218.263 57.3927 219.986 58.254C220.568 58.5327 220.923 58.9253 221.05 59.432C221.202 59.9387 221.176 60.4327 220.974 60.914C220.771 61.3953 220.442 61.7627 219.986 62.016C219.53 62.244 218.985 62.2187 218.352 61.94C217.516 61.56 216.756 61.294 216.072 61.142C215.388 60.9647 214.742 60.876 214.134 60.876C212.994 60.876 212.17 61.066 211.664 61.446C211.157 61.8007 210.904 62.2567 210.904 62.814C210.904 63.7007 211.499 64.258 212.69 64.486L216.68 65.208C218.326 65.4867 219.58 66.044 220.442 66.88C221.303 67.6907 221.734 68.8053 221.734 70.224C221.734 72.1747 220.974 73.6947 219.454 74.784C217.934 75.8733 215.932 76.418 213.45 76.418ZM242.766 76.418C241.651 76.418 240.499 76.3167 239.308 76.114C238.143 75.9113 237.079 75.5693 236.116 75.088C235.483 74.7587 235.065 74.3407 234.862 73.834C234.685 73.3273 234.685 72.8333 234.862 72.352C235.039 71.8707 235.356 71.516 235.812 71.288C236.268 71.0347 236.8 71.0347 237.408 71.288C238.447 71.7187 239.397 72.0227 240.258 72.2C241.145 72.3773 241.993 72.466 242.804 72.466C243.868 72.466 244.653 72.3013 245.16 71.972C245.667 71.6173 245.92 71.1613 245.92 70.604C245.92 69.7173 245.274 69.16 243.982 68.932L239.992 68.21C238.396 67.9313 237.18 67.3613 236.344 66.5C235.508 65.6387 235.09 64.5113 235.09 63.118C235.09 61.8513 235.445 60.762 236.154 59.85C236.863 58.938 237.839 58.2287 239.08 57.722C240.321 57.2153 241.753 56.962 243.374 56.962C245.603 56.962 247.579 57.3927 249.302 58.254C249.885 58.5327 250.239 58.9253 250.366 59.432C250.518 59.9387 250.493 60.4327 250.29 60.914C250.087 61.3953 249.758 61.7627 249.302 62.016C248.846 62.244 248.301 62.2187 247.668 61.94C246.832 61.56 246.072 61.294 245.388 61.142C244.704 60.9647 244.058 60.876 243.45 60.876C242.31 60.876 241.487 61.066 240.98 61.446C240.473 61.8007 240.22 62.2567 240.22 62.814C240.22 63.7007 240.815 64.258 242.006 64.486L245.996 65.208C247.643 65.4867 248.897 66.044 249.758 66.88C250.619 67.6907 251.05 68.8053 251.05 70.224C251.05 72.1747 250.29 73.6947 248.77 74.784C247.25 75.8733 245.249 76.418 242.766 76.418ZM261.203 76.418C258.822 76.418 257.061 75.7593 255.921 74.442C254.806 73.1247 254.249 71.1487 254.249 68.514V59.926C254.249 58.0007 255.199 57.038 257.099 57.038C259.024 57.038 259.987 58.0007 259.987 59.926V68.666C259.987 70.87 260.937 71.972 262.837 71.972C263.926 71.972 264.813 71.592 265.497 70.832C266.206 70.0467 266.561 69.0207 266.561 67.754V59.926C266.561 58.0007 267.511 57.038 269.411 57.038C271.336 57.038 272.299 58.0007 272.299 59.926V73.416C272.299 75.3667 271.374 76.342 269.525 76.342C268.613 76.342 267.916 76.0887 267.435 75.582C266.954 75.0753 266.713 74.366 266.713 73.454C265.472 75.43 263.635 76.418 261.203 76.418ZM283.047 76.418C281.654 76.418 280.425 76.152 279.361 75.62C278.297 75.088 277.448 74.366 276.815 73.454C276.207 72.542 275.903 71.516 275.903 70.376C275.903 69.0333 276.258 67.9567 276.967 67.146C277.676 66.3353 278.829 65.7653 280.425 65.436C282.021 65.0813 284.136 64.904 286.771 64.904H288.139V64.258C288.139 63.1433 287.886 62.358 287.379 61.902C286.872 61.4207 286.011 61.18 284.795 61.18C284.111 61.18 283.364 61.2687 282.553 61.446C281.742 61.598 280.868 61.864 279.931 62.244C279.222 62.548 278.626 62.5733 278.145 62.32C277.664 62.0413 277.347 61.636 277.195 61.104C277.043 60.5467 277.081 59.9893 277.309 59.432C277.562 58.8747 278.044 58.4693 278.753 58.216C279.944 57.76 281.058 57.4433 282.097 57.266C283.161 57.0633 284.136 56.962 285.023 56.962C287.911 56.962 290.064 57.6207 291.483 58.938C292.902 60.23 293.611 62.244 293.611 64.98V73.416C293.611 75.3667 292.724 76.342 290.951 76.342C289.152 76.342 288.253 75.3667 288.253 73.416V73.188C287.873 74.176 287.227 74.9613 286.315 75.544C285.428 76.1267 284.339 76.418 283.047 76.418ZM284.339 72.58C285.403 72.58 286.302 72.2127 287.037 71.478C287.772 70.7433 288.139 69.7933 288.139 68.628V67.868H286.809C284.858 67.868 283.478 68.0453 282.667 68.4C281.856 68.7293 281.451 69.312 281.451 70.148C281.451 70.8573 281.692 71.44 282.173 71.896C282.68 72.352 283.402 72.58 284.339 72.58ZM305.036 76.418C303.921 76.418 302.768 76.3167 301.578 76.114C300.412 75.9113 299.348 75.5693 298.386 75.088C297.752 74.7587 297.334 74.3407 297.132 73.834C296.954 73.3273 296.954 72.8333 297.132 72.352C297.309 71.8707 297.626 71.516 298.082 71.288C298.538 71.0347 299.07 71.0347 299.678 71.288C300.716 71.7187 301.666 72.0227 302.528 72.2C303.414 72.3773 304.263 72.466 305.074 72.466C306.138 72.466 306.923 72.3013 307.43 71.972C307.936 71.6173 308.19 71.1613 308.19 70.604C308.19 69.7173 307.544 69.16 306.252 68.932L302.262 68.21C300.666 67.9313 299.45 67.3613 298.614 66.5C297.778 65.6387 297.36 64.5113 297.36 63.118C297.36 61.8513 297.714 60.762 298.424 59.85C299.133 58.938 300.108 58.2287 301.35 57.722C302.591 57.2153 304.022 56.962 305.644 56.962C307.873 56.962 309.849 57.3927 311.572 58.254C312.154 58.5327 312.509 58.9253 312.636 59.432C312.788 59.9387 312.762 60.4327 312.56 60.914C312.357 61.3953 312.028 61.7627 311.572 62.016C311.116 62.244 310.571 62.2187 309.938 61.94C309.102 61.56 308.342 61.294 307.658 61.142C306.974 60.9647 306.328 60.876 305.719 60.876C304.58 60.876 303.756 61.066 303.25 61.446C302.743 61.8007 302.49 62.2567 302.49 62.814C302.49 63.7007 303.085 64.258 304.276 64.486L308.266 65.208C309.912 65.4867 311.166 66.044 312.028 66.88C312.889 67.6907 313.32 68.8053 313.32 70.224C313.32 72.1747 312.56 73.6947 311.04 74.784C309.52 75.8733 307.518 76.418 305.036 76.418ZM19.418 101.922C17.3153 101.922 16.264 100.972 16.264 99.072C16.264 97.1467 17.3153 96.184 19.418 96.184C21.5207 96.184 22.572 97.1467 22.572 99.072C22.572 99.984 22.2933 100.693 21.736 101.2C21.204 101.681 20.4313 101.922 19.418 101.922ZM6.536 124.342C5.59867 124.342 4.87667 124.089 4.37 123.582C3.88867 123.075 3.648 122.353 3.648 121.416V109.636H2.28C0.785333 109.636 0.038 108.927 0.038 107.508C0.038 106.064 0.785333 105.342 2.28 105.342H3.648C3.69867 102.783 4.38267 100.858 5.7 99.566C7.01733 98.2487 8.94267 97.4507 11.476 97.172L12.578 97.058C13.4647 96.982 14.1107 97.134 14.516 97.514C14.9467 97.894 15.1747 98.3627 15.2 98.92C15.2507 99.4773 15.1367 99.984 14.858 100.44C14.5793 100.896 14.1867 101.149 13.68 101.2L12.882 101.276C11.6153 101.377 10.716 101.707 10.184 102.264C9.652 102.796 9.386 103.607 9.386 104.696V105.342H19.304C21.204 105.342 22.154 106.381 22.154 108.458V121.188C22.154 122.176 21.9133 122.949 21.432 123.506C20.9507 124.038 20.2413 124.304 19.304 124.304C18.392 124.304 17.6827 124.038 17.176 123.506C16.6693 122.949 16.416 122.176 16.416 121.188V109.636H9.386V121.416C9.386 123.367 8.436 124.342 6.536 124.342ZM29.4729 124.342C27.5475 124.342 26.5849 123.367 26.5849 121.416V107.926C26.5849 106.001 27.5222 105.038 29.3969 105.038C31.2715 105.038 32.2089 106.001 32.2089 107.926V108.078C32.8422 107.065 33.6909 106.292 34.7549 105.76C35.8189 105.228 37.0095 104.962 38.3269 104.962C40.5309 104.962 42.1775 105.608 43.2669 106.9C44.3562 108.167 44.9009 110.13 44.9009 112.79V121.416C44.9009 123.367 43.9382 124.342 42.0129 124.342C41.1009 124.342 40.3915 124.089 39.8849 123.582C39.4035 123.075 39.1629 122.353 39.1629 121.416V113.056C39.1629 111.764 38.9222 110.839 38.4409 110.282C37.9595 109.699 37.2502 109.408 36.3129 109.408C35.0969 109.408 34.1215 109.788 33.3869 110.548C32.6775 111.308 32.3229 112.321 32.3229 113.588V121.416C32.3229 123.367 31.3729 124.342 29.4729 124.342ZM55.4925 124.418C54.0991 124.418 52.8705 124.152 51.8065 123.62C50.7425 123.088 49.8938 122.366 49.2605 121.454C48.6525 120.542 48.3485 119.516 48.3485 118.376C48.3485 117.033 48.7031 115.957 49.4125 115.146C50.1218 114.335 51.2745 113.765 52.8705 113.436C54.4665 113.081 56.5818 112.904 59.2165 112.904H60.5845V112.258C60.5845 111.143 60.3311 110.358 59.8245 109.902C59.3178 109.421 58.4565 109.18 57.2405 109.18C56.5565 109.18 55.8091 109.269 54.9985 109.446C54.1878 109.598 53.3138 109.864 52.3765 110.244C51.6671 110.548 51.0718 110.573 50.5905 110.32C50.1091 110.041 49.7925 109.636 49.6405 109.104C49.4885 108.547 49.5265 107.989 49.7545 107.432C50.0078 106.875 50.4891 106.469 51.1985 106.216C52.3891 105.76 53.5038 105.443 54.5425 105.266C55.6065 105.063 56.5818 104.962 57.4685 104.962C60.3565 104.962 62.5098 105.621 63.9285 106.938C65.3471 108.23 66.0565 110.244 66.0565 112.98V121.416C66.0565 123.367 65.1698 124.342 63.3965 124.342C61.5978 124.342 60.6985 123.367 60.6985 121.416V121.188C60.3185 122.176 59.6725 122.961 58.7605 123.544C57.8738 124.127 56.7845 124.418 55.4925 124.418ZM56.7845 120.58C57.8485 120.58 58.7478 120.213 59.4825 119.478C60.2171 118.743 60.5845 117.793 60.5845 116.628V115.868H59.2545C57.3038 115.868 55.9231 116.045 55.1125 116.4C54.3018 116.729 53.8965 117.312 53.8965 118.148C53.8965 118.857 54.1371 119.44 54.6185 119.896C55.1251 120.352 55.8471 120.58 56.7845 120.58ZM73.2248 124.342C71.2995 124.342 70.3368 123.367 70.3368 121.416V107.926C70.3368 106.001 71.2741 105.038 73.1488 105.038C75.0235 105.038 75.9608 106.001 75.9608 107.926V108.078C76.5941 107.065 77.4428 106.292 78.5068 105.76C79.5708 105.228 80.7615 104.962 82.0788 104.962C84.2828 104.962 85.9295 105.608 87.0188 106.9C88.1081 108.167 88.6528 110.13 88.6528 112.79V121.416C88.6528 123.367 87.6901 124.342 85.7648 124.342C84.8528 124.342 84.1435 124.089 83.6368 123.582C83.1555 123.075 82.9148 122.353 82.9148 121.416V113.056C82.9148 111.764 82.6741 110.839 82.1928 110.282C81.7115 109.699 81.0021 109.408 80.0648 109.408C78.8488 109.408 77.8735 109.788 77.1388 110.548C76.4295 111.308 76.0748 112.321 76.0748 113.588V121.416C76.0748 123.367 75.1248 124.342 73.2248 124.342ZM102.018 124.418C99.9918 124.418 98.2184 124.025 96.6984 123.24C95.2038 122.429 94.0511 121.289 93.2404 119.82C92.4298 118.351 92.0244 116.615 92.0244 114.614C92.0244 112.613 92.4298 110.89 93.2404 109.446C94.0511 108.002 95.2038 106.9 96.6984 106.14C98.2184 105.355 99.9918 104.962 102.018 104.962C102.804 104.962 103.64 105.063 104.526 105.266C105.438 105.443 106.312 105.76 107.148 106.216C107.782 106.52 108.174 106.951 108.326 107.508C108.478 108.04 108.44 108.572 108.212 109.104C108.01 109.636 107.668 110.029 107.186 110.282C106.73 110.51 106.186 110.459 105.552 110.13C104.539 109.598 103.551 109.332 102.588 109.332C101.094 109.332 99.9284 109.801 99.0924 110.738C98.2818 111.65 97.8764 112.955 97.8764 114.652C97.8764 116.324 98.2818 117.641 99.0924 118.604C99.9284 119.541 101.094 120.01 102.588 120.01C103.044 120.01 103.526 119.959 104.032 119.858C104.539 119.731 105.046 119.529 105.552 119.25C106.186 118.921 106.73 118.883 107.186 119.136C107.668 119.389 107.997 119.782 108.174 120.314C108.352 120.821 108.364 121.353 108.212 121.91C108.06 122.467 107.68 122.898 107.072 123.202C106.211 123.633 105.35 123.937 104.488 124.114C103.627 124.317 102.804 124.418 102.018 124.418ZM101.6 131.486C101.094 131.486 100.574 131.448 100.042 131.372C99.5104 131.321 99.0164 131.22 98.5604 131.068C98.1044 130.941 97.8004 130.713 97.6484 130.384C97.4964 130.055 97.4584 129.725 97.5344 129.396C97.6104 129.067 97.7878 128.813 98.0664 128.636C98.3704 128.459 98.7504 128.446 99.2064 128.598C99.7891 128.801 100.41 128.902 101.068 128.902C102.386 128.902 103.044 128.573 103.044 127.914C103.044 127.407 102.576 127.154 101.638 127.154C101.461 127.154 101.284 127.154 101.106 127.154C100.954 127.179 100.777 127.205 100.574 127.23C100.22 127.331 99.9284 127.281 99.7004 127.078C99.4978 126.875 99.4344 126.533 99.5104 126.052L99.9284 123.24H102.816L102.436 125.292C102.512 125.292 102.588 125.292 102.664 125.292C103.804 125.292 104.691 125.533 105.324 126.014C105.983 126.521 106.312 127.217 106.312 128.104C106.312 129.117 105.869 129.928 104.982 130.536C104.121 131.169 102.994 131.486 101.6 131.486ZM117.317 124.418C115.923 124.418 114.695 124.152 113.631 123.62C112.567 123.088 111.718 122.366 111.085 121.454C110.477 120.542 110.173 119.516 110.173 118.376C110.173 117.033 110.527 115.957 111.237 115.146C111.946 114.335 113.099 113.765 114.695 113.436C116.291 113.081 118.406 112.904 121.041 112.904H122.409V112.258C122.409 111.143 122.155 110.358 121.649 109.902C121.142 109.421 120.281 109.18 119.065 109.18C118.381 109.18 117.633 109.269 116.823 109.446C116.012 109.598 115.138 109.864 114.201 110.244C113.491 110.548 112.896 110.573 112.415 110.32C111.933 110.041 111.617 109.636 111.465 109.104C111.313 108.547 111.351 107.989 111.579 107.432C111.832 106.875 112.313 106.469 113.023 106.216C114.213 105.76 115.328 105.443 116.367 105.266C117.431 105.063 118.406 104.962 119.293 104.962C122.181 104.962 124.334 105.621 125.753 106.938C127.171 108.23 127.881 110.244 127.881 112.98V121.416C127.881 123.367 126.994 124.342 125.221 124.342C123.422 124.342 122.523 123.367 122.523 121.416V121.188C122.143 122.176 121.497 122.961 120.585 123.544C119.698 124.127 118.609 124.418 117.317 124.418ZM118.609 120.58C119.673 120.58 120.572 120.213 121.307 119.478C122.041 118.743 122.409 117.793 122.409 116.628V115.868H121.079C119.128 115.868 117.747 116.045 116.937 116.4C116.126 116.729 115.721 117.312 115.721 118.148C115.721 118.857 115.961 119.44 116.443 119.896C116.949 120.352 117.671 120.58 118.609 120.58ZM139.305 124.418C138.19 124.418 137.038 124.317 135.847 124.114C134.682 123.911 133.618 123.569 132.655 123.088C132.022 122.759 131.604 122.341 131.401 121.834C131.224 121.327 131.224 120.833 131.401 120.352C131.578 119.871 131.895 119.516 132.351 119.288C132.807 119.035 133.339 119.035 133.947 119.288C134.986 119.719 135.936 120.023 136.797 120.2C137.684 120.377 138.532 120.466 139.343 120.466C140.407 120.466 141.192 120.301 141.699 119.972C142.206 119.617 142.459 119.161 142.459 118.604C142.459 117.717 141.813 117.16 140.521 116.932L136.531 116.21C134.935 115.931 133.719 115.361 132.883 114.5C132.047 113.639 131.629 112.511 131.629 111.118C131.629 109.851 131.984 108.762 132.693 107.85C133.402 106.938 134.378 106.229 135.619 105.722C136.86 105.215 138.292 104.962 139.913 104.962C142.142 104.962 144.118 105.393 145.841 106.254C146.424 106.533 146.778 106.925 146.905 107.432C147.057 107.939 147.032 108.433 146.829 108.914C146.626 109.395 146.297 109.763 145.841 110.016C145.385 110.244 144.84 110.219 144.207 109.94C143.371 109.56 142.611 109.294 141.927 109.142C141.243 108.965 140.597 108.876 139.989 108.876C138.849 108.876 138.026 109.066 137.519 109.446C137.012 109.801 136.759 110.257 136.759 110.814C136.759 111.701 137.354 112.258 138.545 112.486L142.535 113.208C144.182 113.487 145.436 114.044 146.297 114.88C147.158 115.691 147.589 116.805 147.589 118.224C147.589 120.175 146.829 121.695 145.309 122.784C143.789 123.873 141.788 124.418 139.305 124.418Z" fill="white"/>
</svg>
