<svg width="177" height="16" viewBox="0 0 177 16" fill="none" xmlns="http://www.w3.org/2000/svg">
<path d="M7.456 1.64C7.65867 1.64 7.81867 1.69867 7.936 1.816C8.05333 1.93333 8.112 2.08267 8.112 2.264V12.44C8.112 12.632 8.05333 12.7867 7.936 12.904C7.81867 13.0213 7.65867 13.08 7.456 13.08C7.25333 13.08 7.09333 13.0213 6.976 12.904C6.86933 12.7867 6.816 12.632 6.816 12.44V11.576C6.58133 12.0667 6.23467 12.4453 5.776 12.712C5.328 12.9787 4.8 13.112 4.192 13.112C3.50933 13.112 2.90667 12.9413 2.384 12.6C1.86133 12.2587 1.456 11.784 1.168 11.176C0.88 10.5573 0.736 9.84267 0.736 9.032C0.736 8.232 0.88 7.528 1.168 6.92C1.456 6.312 1.86133 5.84267 2.384 5.512C2.90667 5.18133 3.50933 5.016 4.192 5.016C4.8 5.016 5.328 5.14933 5.776 5.416C6.23467 5.68267 6.58133 6.06133 6.816 6.552V2.264C6.816 2.072 6.86933 1.92267 6.976 1.816C7.09333 1.69867 7.25333 1.64 7.456 1.64ZM4.448 12.04C5.20533 12.04 5.78667 11.784 6.192 11.272C6.608 10.7493 6.816 10.0133 6.816 9.064C6.816 8.11467 6.608 7.384 6.192 6.872C5.78667 6.36 5.20533 6.104 4.448 6.104C3.69067 6.104 3.09867 6.36 2.672 6.872C2.256 7.384 2.048 8.104 2.048 9.032C2.048 9.98133 2.256 10.7227 2.672 11.256C3.09867 11.7787 3.69067 12.04 4.448 12.04ZM16.5445 11.192C16.6618 11.192 16.7632 11.24 16.8485 11.336C16.9338 11.432 16.9765 11.5547 16.9765 11.704C16.9765 11.9707 16.7898 12.216 16.4165 12.44C16.0325 12.664 15.6272 12.8347 15.2005 12.952C14.7738 13.0587 14.3578 13.112 13.9525 13.112C12.7472 13.112 11.7925 12.7547 11.0885 12.04C10.3952 11.3253 10.0485 10.3387 10.0485 9.08C10.0485 8.28 10.2032 7.576 10.5125 6.968C10.8218 6.34933 11.2538 5.86933 11.8085 5.528C12.3738 5.18667 13.0138 5.016 13.7285 5.016C14.7418 5.016 15.5472 5.34667 16.1445 6.008C16.7418 6.66933 17.0405 7.56533 17.0405 8.696C17.0405 8.90933 16.9978 9.064 16.9125 9.16C16.8272 9.256 16.6885 9.304 16.4965 9.304H11.3445C11.4405 11.1387 12.3098 12.056 13.9525 12.056C14.3685 12.056 14.7258 12.0027 15.0245 11.896C15.3232 11.7787 15.6432 11.624 15.9845 11.432C16.2618 11.272 16.4485 11.192 16.5445 11.192ZM13.7445 6.024C13.0618 6.024 12.5125 6.23733 12.0965 6.664C11.6912 7.09067 11.4512 7.69333 11.3765 8.472H15.9045C15.8832 7.68267 15.6858 7.08 15.3125 6.664C14.9392 6.23733 14.4165 6.024 13.7445 6.024ZM26.515 2.744C25.9497 2.78667 25.523 2.968 25.235 3.288C24.947 3.59733 24.803 4.06667 24.803 4.696V5.208H26.579C26.7603 5.208 26.899 5.256 26.995 5.352C27.091 5.448 27.139 5.576 27.139 5.736C27.139 5.896 27.091 6.01867 26.995 6.104C26.899 6.18933 26.7603 6.232 26.579 6.232H24.803V12.44C24.803 12.6427 24.739 12.8027 24.611 12.92C24.4937 13.0267 24.3443 13.08 24.163 13.08C23.971 13.08 23.811 13.0267 23.683 12.92C23.5657 12.8027 23.507 12.6427 23.507 12.44V6.232H22.435C22.2537 6.232 22.1097 6.18933 22.003 6.104C21.907 6.008 21.859 5.88533 21.859 5.736C21.859 5.576 21.907 5.448 22.003 5.352C22.1097 5.256 22.2537 5.208 22.435 5.208H23.507V4.92C23.507 3.96 23.747 3.208 24.227 2.664C24.707 2.10933 25.395 1.8 26.291 1.736L26.707 1.704C26.9843 1.68267 27.1817 1.70933 27.299 1.784C27.427 1.85867 27.491 1.992 27.491 2.184C27.491 2.49333 27.3043 2.66933 26.931 2.712L26.515 2.744ZM31.4789 13.112C30.7429 13.112 30.0922 12.9467 29.5269 12.616C28.9722 12.2853 28.5402 11.816 28.2309 11.208C27.9322 10.5893 27.7829 9.87467 27.7829 9.064C27.7829 8.25333 27.9322 7.544 28.2309 6.936C28.5402 6.31733 28.9722 5.84267 29.5269 5.512C30.0922 5.18133 30.7429 5.016 31.4789 5.016C32.2149 5.016 32.8655 5.18133 33.4309 5.512C33.9962 5.84267 34.4282 6.31733 34.7269 6.936C35.0362 7.544 35.1909 8.25333 35.1909 9.064C35.1909 9.87467 35.0362 10.5893 34.7269 11.208C34.4282 11.816 33.9962 12.2853 33.4309 12.616C32.8655 12.9467 32.2149 13.112 31.4789 13.112ZM31.4789 12.04C32.2469 12.04 32.8335 11.7893 33.2389 11.288C33.6549 10.776 33.8629 10.0347 33.8629 9.064C33.8629 8.11467 33.6549 7.384 33.2389 6.872C32.8229 6.34933 32.2362 6.088 31.4789 6.088C30.7215 6.088 30.1349 6.34933 29.7189 6.872C29.3029 7.384 29.0949 8.11467 29.0949 9.064C29.0949 10.024 29.2975 10.76 29.7029 11.272C30.1189 11.784 30.7109 12.04 31.4789 12.04ZM40.9779 5.048C41.4259 5.016 41.6499 5.19733 41.6499 5.592C41.6499 5.76267 41.6019 5.90133 41.5059 6.008C41.4099 6.104 41.2445 6.16267 41.0099 6.184L40.5299 6.232C39.8152 6.296 39.2819 6.552 38.9299 7C38.5885 7.43733 38.4179 7.95467 38.4179 8.552V12.44C38.4179 12.6533 38.3592 12.8133 38.2419 12.92C38.1245 13.0267 37.9699 13.08 37.7779 13.08C37.5859 13.08 37.4259 13.0267 37.2979 12.92C37.1805 12.8027 37.1219 12.6427 37.1219 12.44V5.688C37.1219 5.48533 37.1859 5.33067 37.3139 5.224C37.4419 5.10667 37.5965 5.048 37.7779 5.048C37.9485 5.048 38.0925 5.10667 38.2099 5.224C38.3272 5.33067 38.3859 5.48 38.3859 5.672V6.568C38.6099 6.09867 38.9245 5.74133 39.3299 5.496C39.7459 5.25067 40.2205 5.10667 40.7539 5.064L40.9779 5.048ZM51.4345 5.016C53.1625 5.016 54.0265 6.04533 54.0265 8.104V12.44C54.0265 12.6427 53.9678 12.8027 53.8505 12.92C53.7332 13.0267 53.5785 13.08 53.3865 13.08C53.1945 13.08 53.0345 13.0267 52.9065 12.92C52.7892 12.8027 52.7305 12.6427 52.7305 12.44V8.136C52.7305 7.42133 52.6025 6.904 52.3465 6.584C52.0905 6.264 51.6905 6.104 51.1465 6.104C50.4958 6.104 49.9838 6.32267 49.6105 6.76C49.2372 7.19733 49.0505 7.78933 49.0505 8.536V12.44C49.0505 12.6427 48.9865 12.8027 48.8585 12.92C48.7412 13.0267 48.5865 13.08 48.3945 13.08C48.2025 13.08 48.0478 13.0267 47.9305 12.92C47.8132 12.8027 47.7545 12.6427 47.7545 12.44V8.136C47.7545 7.42133 47.6265 6.904 47.3705 6.584C47.1145 6.264 46.7092 6.104 46.1545 6.104C45.5145 6.104 45.0025 6.32267 44.6185 6.76C44.2452 7.19733 44.0585 7.78933 44.0585 8.536V12.44C44.0585 12.6427 43.9998 12.8027 43.8825 12.92C43.7652 13.0267 43.6105 13.08 43.4185 13.08C43.2265 13.08 43.0665 13.0267 42.9385 12.92C42.8212 12.8027 42.7625 12.6427 42.7625 12.44V5.688C42.7625 5.496 42.8212 5.34133 42.9385 5.224C43.0665 5.10667 43.2265 5.048 43.4185 5.048C43.5998 5.048 43.7492 5.10667 43.8665 5.224C43.9838 5.33067 44.0425 5.48 44.0425 5.672V6.44C44.2772 5.98133 44.6025 5.62933 45.0185 5.384C45.4345 5.13867 45.9145 5.016 46.4585 5.016C47.6745 5.016 48.4692 5.528 48.8425 6.552C49.0665 6.08267 49.4078 5.70933 49.8665 5.432C50.3252 5.15467 50.8478 5.016 51.4345 5.016ZM59.5715 5.016C61.5235 5.016 62.4995 6.04 62.4995 8.088V12.44C62.4995 12.632 62.4408 12.7867 62.3235 12.904C62.2168 13.0213 62.0675 13.08 61.8755 13.08C61.6835 13.08 61.5288 13.0213 61.4115 12.904C61.2942 12.7867 61.2355 12.632 61.2355 12.44V11.672C61.0328 12.1307 60.7235 12.488 60.3075 12.744C59.8915 12.9893 59.4115 13.112 58.8675 13.112C58.3662 13.112 57.9022 13.0107 57.4755 12.808C57.0595 12.6053 56.7288 12.3227 56.4835 11.96C56.2382 11.5973 56.1155 11.1973 56.1155 10.76C56.1155 10.1733 56.2648 9.72 56.5635 9.4C56.8622 9.06933 57.3528 8.83467 58.0355 8.696C58.7182 8.54667 59.6675 8.472 60.8835 8.472H61.2355V7.944C61.2355 7.304 61.1022 6.83467 60.8355 6.536C60.5795 6.23733 60.1582 6.088 59.5715 6.088C58.8462 6.088 58.1102 6.28533 57.3635 6.68C57.0755 6.86133 56.8728 6.952 56.7555 6.952C56.6275 6.952 56.5208 6.904 56.4355 6.808C56.3502 6.712 56.3075 6.58933 56.3075 6.44C56.3075 6.29067 56.3502 6.16267 56.4355 6.056C56.5315 5.93867 56.6808 5.82133 56.8835 5.704C57.2568 5.49067 57.6782 5.32533 58.1475 5.208C58.6275 5.08 59.1022 5.016 59.5715 5.016ZM59.0435 12.088C59.6835 12.088 60.2062 11.8747 60.6115 11.448C61.0275 11.0107 61.2355 10.4507 61.2355 9.768V9.304H60.9475C60.0088 9.304 59.2942 9.34667 58.8035 9.432C58.3128 9.50667 57.9608 9.64 57.7475 9.832C57.5448 10.0133 57.4435 10.2853 57.4435 10.648C57.4435 11.064 57.5928 11.4107 57.8915 11.688C58.2008 11.9547 58.5848 12.088 59.0435 12.088ZM72.8529 5.048C73.3009 5.016 73.5249 5.19733 73.5249 5.592C73.5249 5.76267 73.4769 5.90133 73.3809 6.008C73.2849 6.104 73.1195 6.16267 72.8849 6.184L72.4049 6.232C71.6902 6.296 71.1569 6.552 70.8049 7C70.4635 7.43733 70.2929 7.95467 70.2929 8.552V12.44C70.2929 12.6533 70.2342 12.8133 70.1169 12.92C69.9995 13.0267 69.8449 13.08 69.6529 13.08C69.4609 13.08 69.3009 13.0267 69.1729 12.92C69.0555 12.8027 68.9969 12.6427 68.9969 12.44V5.688C68.9969 5.48533 69.0609 5.33067 69.1889 5.224C69.3169 5.10667 69.4715 5.048 69.6529 5.048C69.8235 5.048 69.9675 5.10667 70.0849 5.224C70.2022 5.33067 70.2609 5.48 70.2609 5.672V6.568C70.4849 6.09867 70.7995 5.74133 71.2049 5.496C71.6209 5.25067 72.0955 5.10667 72.6289 5.064L72.8529 5.048ZM77.759 5.016C79.711 5.016 80.687 6.04 80.687 8.088V12.44C80.687 12.632 80.6283 12.7867 80.511 12.904C80.4043 13.0213 80.255 13.08 80.063 13.08C79.871 13.08 79.7163 13.0213 79.599 12.904C79.4817 12.7867 79.423 12.632 79.423 12.44V11.672C79.2203 12.1307 78.911 12.488 78.495 12.744C78.079 12.9893 77.599 13.112 77.055 13.112C76.5537 13.112 76.0897 13.0107 75.663 12.808C75.247 12.6053 74.9163 12.3227 74.671 11.96C74.4257 11.5973 74.303 11.1973 74.303 10.76C74.303 10.1733 74.4523 9.72 74.751 9.4C75.0497 9.06933 75.5403 8.83467 76.223 8.696C76.9057 8.54667 77.855 8.472 79.071 8.472H79.423V7.944C79.423 7.304 79.2897 6.83467 79.023 6.536C78.767 6.23733 78.3457 6.088 77.759 6.088C77.0337 6.088 76.2977 6.28533 75.551 6.68C75.263 6.86133 75.0603 6.952 74.943 6.952C74.815 6.952 74.7083 6.904 74.623 6.808C74.5377 6.712 74.495 6.58933 74.495 6.44C74.495 6.29067 74.5377 6.16267 74.623 6.056C74.719 5.93867 74.8683 5.82133 75.071 5.704C75.4443 5.49067 75.8657 5.32533 76.335 5.208C76.815 5.08 77.2897 5.016 77.759 5.016ZM77.231 12.088C77.871 12.088 78.3937 11.8747 78.799 11.448C79.215 11.0107 79.423 10.4507 79.423 9.768V9.304H79.135C78.1963 9.304 77.4817 9.34667 76.991 9.432C76.5003 9.50667 76.1483 9.64 75.935 9.832C75.7323 10.0133 75.631 10.2853 75.631 10.648C75.631 11.064 75.7803 11.4107 76.079 11.688C76.3883 11.9547 76.7723 12.088 77.231 12.088ZM78.047 4.168C77.9617 4.232 77.8763 4.264 77.791 4.264C77.6843 4.264 77.5937 4.232 77.519 4.168C77.4443 4.09333 77.407 4.008 77.407 3.912C77.407 3.82667 77.439 3.74667 77.503 3.672L79.359 1.24C79.551 0.994666 79.7697 0.872 80.015 0.872C80.1857 0.872 80.3297 0.930666 80.447 1.048C80.5643 1.15467 80.623 1.29333 80.623 1.464C80.623 1.688 80.5163 1.89067 80.303 2.072L78.047 4.168ZM86.9794 5.016C87.662 5.016 88.2647 5.18667 88.7874 5.528C89.31 5.86933 89.7154 6.34933 90.0034 6.968C90.2914 7.576 90.4354 8.28533 90.4354 9.096C90.4354 9.90667 90.2914 10.616 90.0034 11.224C89.7154 11.8213 89.31 12.2853 88.7874 12.616C88.2754 12.9467 87.6727 13.112 86.9794 13.112C86.3714 13.112 85.838 12.9787 85.3794 12.712C84.9314 12.4453 84.59 12.0667 84.3554 11.576V15.336C84.3554 15.528 84.2967 15.6773 84.1794 15.784C84.0727 15.9013 83.918 15.96 83.7154 15.96C83.5127 15.96 83.3527 15.9013 83.2354 15.784C83.118 15.6667 83.0594 15.5173 83.0594 15.336V5.688C83.0594 5.496 83.118 5.34133 83.2354 5.224C83.3527 5.10667 83.5127 5.048 83.7154 5.048C83.918 5.048 84.0727 5.10667 84.1794 5.224C84.2967 5.34133 84.3554 5.496 84.3554 5.688V6.552C84.59 6.06133 84.9314 5.68267 85.3794 5.416C85.838 5.14933 86.3714 5.016 86.9794 5.016ZM86.7234 12.04C87.4807 12.04 88.0674 11.784 88.4834 11.272C88.8994 10.76 89.1074 10.0347 89.1074 9.096C89.1074 8.15733 88.8994 7.42667 88.4834 6.904C88.0674 6.37067 87.4807 6.104 86.7234 6.104C85.966 6.104 85.3794 6.36 84.9634 6.872C84.558 7.384 84.3554 8.11467 84.3554 9.064C84.3554 10.0133 84.558 10.7493 84.9634 11.272C85.3794 11.784 85.966 12.04 86.7234 12.04ZM93.0279 13.08C92.8359 13.08 92.6759 13.0267 92.5479 12.92C92.4305 12.8027 92.3719 12.6427 92.3719 12.44V5.688C92.3719 5.48533 92.4305 5.33067 92.5479 5.224C92.6759 5.10667 92.8359 5.048 93.0279 5.048C93.2199 5.048 93.3745 5.10667 93.4919 5.224C93.6092 5.33067 93.6679 5.48533 93.6679 5.688V12.44C93.6679 12.6533 93.6092 12.8133 93.4919 12.92C93.3745 13.0267 93.2199 13.08 93.0279 13.08ZM93.0279 3.368C92.7719 3.368 92.5639 3.29333 92.4039 3.144C92.2439 2.99467 92.1639 2.79733 92.1639 2.552C92.1639 2.31733 92.2439 2.12533 92.4039 1.976C92.5639 1.82667 92.7719 1.752 93.0279 1.752C93.2839 1.752 93.4919 1.82667 93.6519 1.976C93.8119 2.12533 93.8919 2.31733 93.8919 2.552C93.8919 2.79733 93.8119 2.99467 93.6519 3.144C93.4919 3.29333 93.2839 3.368 93.0279 3.368ZM102.347 1.64C102.549 1.64 102.709 1.69867 102.827 1.816C102.944 1.93333 103.003 2.08267 103.003 2.264V12.44C103.003 12.632 102.944 12.7867 102.827 12.904C102.709 13.0213 102.549 13.08 102.347 13.08C102.144 13.08 101.984 13.0213 101.867 12.904C101.76 12.7867 101.707 12.632 101.707 12.44V11.576C101.472 12.0667 101.125 12.4453 100.667 12.712C100.219 12.9787 99.6906 13.112 99.0826 13.112C98.4 13.112 97.7973 12.9413 97.2746 12.6C96.752 12.2587 96.3466 11.784 96.0586 11.176C95.7706 10.5573 95.6266 9.84267 95.6266 9.032C95.6266 8.232 95.7706 7.528 96.0586 6.92C96.3466 6.312 96.752 5.84267 97.2746 5.512C97.7973 5.18133 98.4 5.016 99.0826 5.016C99.6906 5.016 100.219 5.14933 100.667 5.416C101.125 5.68267 101.472 6.06133 101.707 6.552V2.264C101.707 2.072 101.76 1.92267 101.867 1.816C101.984 1.69867 102.144 1.64 102.347 1.64ZM99.3386 12.04C100.096 12.04 100.677 11.784 101.083 11.272C101.499 10.7493 101.707 10.0133 101.707 9.064C101.707 8.11467 101.499 7.384 101.083 6.872C100.677 6.36 100.096 6.104 99.3386 6.104C98.5813 6.104 97.9893 6.36 97.5626 6.872C97.1466 7.384 96.9386 8.104 96.9386 9.032C96.9386 9.98133 97.1466 10.7227 97.5626 11.256C97.9893 11.7787 98.5813 12.04 99.3386 12.04ZM108.587 5.016C110.539 5.016 111.515 6.04 111.515 8.088V12.44C111.515 12.632 111.456 12.7867 111.339 12.904C111.232 13.0213 111.083 13.08 110.891 13.08C110.699 13.08 110.544 13.0213 110.427 12.904C110.31 12.7867 110.251 12.632 110.251 12.44V11.672C110.048 12.1307 109.739 12.488 109.323 12.744C108.907 12.9893 108.427 13.112 107.883 13.112C107.382 13.112 106.918 13.0107 106.491 12.808C106.075 12.6053 105.744 12.3227 105.499 11.96C105.254 11.5973 105.131 11.1973 105.131 10.76C105.131 10.1733 105.28 9.72 105.579 9.4C105.878 9.06933 106.368 8.83467 107.051 8.696C107.734 8.54667 108.683 8.472 109.899 8.472H110.251V7.944C110.251 7.304 110.118 6.83467 109.851 6.536C109.595 6.23733 109.174 6.088 108.587 6.088C107.862 6.088 107.126 6.28533 106.379 6.68C106.091 6.86133 105.888 6.952 105.771 6.952C105.643 6.952 105.536 6.904 105.451 6.808C105.366 6.712 105.323 6.58933 105.323 6.44C105.323 6.29067 105.366 6.16267 105.451 6.056C105.547 5.93867 105.696 5.82133 105.899 5.704C106.272 5.49067 106.694 5.32533 107.163 5.208C107.643 5.08 108.118 5.016 108.587 5.016ZM108.059 12.088C108.699 12.088 109.222 11.8747 109.627 11.448C110.043 11.0107 110.251 10.4507 110.251 9.768V9.304H109.963C109.024 9.304 108.31 9.34667 107.819 9.432C107.328 9.50667 106.976 9.64 106.763 9.832C106.56 10.0133 106.459 10.2853 106.459 10.648C106.459 11.064 106.608 11.4107 106.907 11.688C107.216 11.9547 107.6 12.088 108.059 12.088ZM124.045 11.192C124.162 11.192 124.263 11.24 124.349 11.336C124.434 11.432 124.477 11.5547 124.477 11.704C124.477 11.9707 124.29 12.216 123.917 12.44C123.533 12.664 123.127 12.8347 122.701 12.952C122.274 13.0587 121.858 13.112 121.453 13.112C120.247 13.112 119.293 12.7547 118.589 12.04C117.895 11.3253 117.549 10.3387 117.549 9.08C117.549 8.28 117.703 7.576 118.013 6.968C118.322 6.34933 118.754 5.86933 119.309 5.528C119.874 5.18667 120.514 5.016 121.229 5.016C122.242 5.016 123.047 5.34667 123.645 6.008C124.242 6.66933 124.541 7.56533 124.541 8.696C124.541 8.90933 124.498 9.064 124.413 9.16C124.327 9.256 124.189 9.304 123.997 9.304H118.845C118.941 11.1387 119.81 12.056 121.453 12.056C121.869 12.056 122.226 12.0027 122.525 11.896C122.823 11.7787 123.143 11.624 123.485 11.432C123.762 11.272 123.949 11.192 124.045 11.192ZM121.245 6.024C120.562 6.024 120.013 6.23733 119.597 6.664C119.191 7.09067 118.951 7.69333 118.877 8.472H123.405C123.383 7.68267 123.186 7.08 122.813 6.664C122.439 6.23733 121.917 6.024 121.245 6.024ZM133.199 13.112C132.708 13.112 132.239 13.0533 131.791 12.936C131.354 12.8187 130.964 12.6533 130.623 12.44C130.431 12.312 130.292 12.1947 130.207 12.088C130.132 11.9707 130.095 11.832 130.095 11.672C130.095 11.5333 130.132 11.4213 130.207 11.336C130.292 11.24 130.399 11.192 130.527 11.192C130.655 11.192 130.842 11.272 131.087 11.432C131.407 11.624 131.722 11.7787 132.031 11.896C132.351 12.0027 132.746 12.056 133.215 12.056C133.791 12.056 134.239 11.9547 134.559 11.752C134.879 11.5493 135.039 11.256 135.039 10.872C135.039 10.6373 134.98 10.4507 134.863 10.312C134.746 10.1627 134.543 10.0347 134.255 9.928C133.967 9.81067 133.546 9.69333 132.991 9.576C132.052 9.37333 131.38 9.10133 130.975 8.76C130.57 8.41867 130.367 7.95467 130.367 7.368C130.367 6.90933 130.495 6.504 130.751 6.152C131.007 5.8 131.359 5.52267 131.807 5.32C132.266 5.11733 132.783 5.016 133.359 5.016C133.775 5.016 134.175 5.07467 134.559 5.192C134.954 5.29867 135.3 5.45333 135.599 5.656C135.962 5.912 136.143 6.17867 136.143 6.456C136.143 6.59467 136.1 6.712 136.015 6.808C135.93 6.904 135.828 6.952 135.711 6.952C135.583 6.952 135.391 6.86133 135.135 6.68C134.836 6.488 134.554 6.33867 134.287 6.232C134.02 6.12533 133.69 6.072 133.295 6.072C132.794 6.072 132.388 6.184 132.079 6.408C131.78 6.632 131.631 6.93067 131.631 7.304C131.631 7.53867 131.684 7.73067 131.791 7.88C131.908 8.01867 132.095 8.14667 132.351 8.264C132.618 8.37067 132.996 8.47733 133.487 8.584C134.212 8.744 134.772 8.92 135.167 9.112C135.572 9.304 135.86 9.53867 136.031 9.816C136.202 10.0933 136.287 10.4453 136.287 10.872C136.287 11.544 136.004 12.088 135.439 12.504C134.874 12.9093 134.127 13.112 133.199 13.112ZM144.295 11.192C144.412 11.192 144.513 11.24 144.599 11.336C144.684 11.432 144.727 11.5547 144.727 11.704C144.727 11.9707 144.54 12.216 144.167 12.44C143.783 12.664 143.377 12.8347 142.951 12.952C142.524 13.0587 142.108 13.112 141.703 13.112C140.497 13.112 139.543 12.7547 138.839 12.04C138.145 11.3253 137.799 10.3387 137.799 9.08C137.799 8.28 137.953 7.576 138.263 6.968C138.572 6.34933 139.004 5.86933 139.559 5.528C140.124 5.18667 140.764 5.016 141.479 5.016C142.492 5.016 143.297 5.34667 143.895 6.008C144.492 6.66933 144.791 7.56533 144.791 8.696C144.791 8.90933 144.748 9.064 144.663 9.16C144.577 9.256 144.439 9.304 144.247 9.304H139.095C139.191 11.1387 140.06 12.056 141.703 12.056C142.119 12.056 142.476 12.0027 142.775 11.896C143.073 11.7787 143.393 11.624 143.735 11.432C144.012 11.272 144.199 11.192 144.295 11.192ZM141.495 6.024C140.812 6.024 140.263 6.23733 139.847 6.664C139.441 7.09067 139.201 7.69333 139.127 8.472H143.655C143.633 7.68267 143.436 7.08 143.063 6.664C142.689 6.23733 142.167 6.024 141.495 6.024ZM153.02 5.048C153.223 5.048 153.383 5.10667 153.5 5.224C153.617 5.34133 153.676 5.496 153.676 5.688V12.472C153.676 13.6347 153.377 14.5093 152.78 15.096C152.183 15.6933 151.297 15.992 150.124 15.992C148.983 15.992 148.033 15.768 147.276 15.32C146.892 15.1067 146.7 14.8613 146.7 14.584C146.7 14.4347 146.737 14.312 146.812 14.216C146.897 14.12 147.004 14.072 147.132 14.072C147.239 14.072 147.431 14.1467 147.708 14.296C148.081 14.488 148.449 14.6427 148.812 14.76C149.175 14.8773 149.607 14.936 150.108 14.936C150.865 14.936 151.436 14.7333 151.82 14.328C152.204 13.9333 152.396 13.352 152.396 12.584V11.208C152.172 11.7093 151.825 12.0933 151.356 12.36C150.897 12.6267 150.353 12.76 149.724 12.76C149.041 12.76 148.433 12.6 147.9 12.28C147.377 11.96 146.967 11.5067 146.668 10.92C146.38 10.3333 146.236 9.656 146.236 8.888C146.236 8.12 146.38 7.44267 146.668 6.856C146.967 6.26933 147.377 5.816 147.9 5.496C148.433 5.176 149.041 5.016 149.724 5.016C150.343 5.016 150.881 5.14933 151.34 5.416C151.799 5.68267 152.145 6.06133 152.38 6.552V5.688C152.38 5.496 152.433 5.34133 152.54 5.224C152.657 5.10667 152.817 5.048 153.02 5.048ZM149.98 11.688C150.727 11.688 151.313 11.4427 151.74 10.952C152.167 10.4507 152.38 9.76267 152.38 8.888C152.38 8.024 152.167 7.34667 151.74 6.856C151.324 6.35467 150.737 6.104 149.98 6.104C149.223 6.104 148.625 6.35467 148.188 6.856C147.761 7.34667 147.548 8.024 147.548 8.888C147.548 9.76267 147.761 10.4507 148.188 10.952C148.625 11.4427 149.223 11.688 149.98 11.688ZM161.995 5.048C162.198 5.048 162.352 5.10667 162.459 5.224C162.576 5.34133 162.635 5.496 162.635 5.688V12.456C162.635 12.6373 162.576 12.7867 162.459 12.904C162.352 13.0213 162.198 13.08 161.995 13.08C161.803 13.08 161.648 13.0267 161.531 12.92C161.424 12.8027 161.371 12.6533 161.371 12.472V11.672C161.126 12.1413 160.779 12.4987 160.331 12.744C159.894 12.9893 159.398 13.112 158.843 13.112C157.915 13.112 157.216 12.856 156.747 12.344C156.278 11.8213 156.043 11.0533 156.043 10.04V5.688C156.043 5.496 156.102 5.34133 156.219 5.224C156.336 5.10667 156.496 5.048 156.699 5.048C156.902 5.048 157.056 5.10667 157.163 5.224C157.28 5.34133 157.339 5.496 157.339 5.688V10.008C157.339 10.7013 157.478 11.2133 157.755 11.544C158.032 11.864 158.47 12.024 159.067 12.024C159.75 12.024 160.299 11.8053 160.715 11.368C161.131 10.92 161.339 10.3333 161.339 9.608V5.688C161.339 5.496 161.398 5.34133 161.515 5.224C161.632 5.10667 161.792 5.048 161.995 5.048ZM168.9 5.048C169.348 5.016 169.572 5.19733 169.572 5.592C169.572 5.76267 169.524 5.90133 169.428 6.008C169.332 6.104 169.166 6.16267 168.932 6.184L168.452 6.232C167.737 6.296 167.204 6.552 166.852 7C166.51 7.43733 166.34 7.95467 166.34 8.552V12.44C166.34 12.6533 166.281 12.8133 166.164 12.92C166.046 13.0267 165.892 13.08 165.7 13.08C165.508 13.08 165.348 13.0267 165.22 12.92C165.102 12.8027 165.044 12.6427 165.044 12.44V5.688C165.044 5.48533 165.108 5.33067 165.236 5.224C165.364 5.10667 165.518 5.048 165.7 5.048C165.87 5.048 166.014 5.10667 166.132 5.224C166.249 5.33067 166.308 5.48 166.308 5.672V6.568C166.532 6.09867 166.846 5.74133 167.252 5.496C167.668 5.25067 168.142 5.10667 168.676 5.064L168.9 5.048ZM173.806 5.016C175.758 5.016 176.734 6.04 176.734 8.088V12.44C176.734 12.632 176.675 12.7867 176.558 12.904C176.451 13.0213 176.302 13.08 176.11 13.08C175.918 13.08 175.763 13.0213 175.646 12.904C175.529 12.7867 175.47 12.632 175.47 12.44V11.672C175.267 12.1307 174.958 12.488 174.542 12.744C174.126 12.9893 173.646 13.112 173.102 13.112C172.601 13.112 172.137 13.0107 171.71 12.808C171.294 12.6053 170.963 12.3227 170.718 11.96C170.473 11.5973 170.35 11.1973 170.35 10.76C170.35 10.1733 170.499 9.72 170.798 9.4C171.097 9.06933 171.587 8.83467 172.27 8.696C172.953 8.54667 173.902 8.472 175.118 8.472H175.47V7.944C175.47 7.304 175.337 6.83467 175.07 6.536C174.814 6.23733 174.393 6.088 173.806 6.088C173.081 6.088 172.345 6.28533 171.598 6.68C171.31 6.86133 171.107 6.952 170.99 6.952C170.862 6.952 170.755 6.904 170.67 6.808C170.585 6.712 170.542 6.58933 170.542 6.44C170.542 6.29067 170.585 6.16267 170.67 6.056C170.766 5.93867 170.915 5.82133 171.118 5.704C171.491 5.49067 171.913 5.32533 172.382 5.208C172.862 5.08 173.337 5.016 173.806 5.016ZM173.278 12.088C173.918 12.088 174.441 11.8747 174.846 11.448C175.262 11.0107 175.47 10.4507 175.47 9.768V9.304H175.182C174.243 9.304 173.529 9.34667 173.038 9.432C172.547 9.50667 172.195 9.64 171.982 9.832C171.779 10.0133 171.678 10.2853 171.678 10.648C171.678 11.064 171.827 11.4107 172.126 11.688C172.435 11.9547 172.819 12.088 173.278 12.088Z" fill="white"/>
</svg>
